<svg width="15" height="28" viewBox="0 0 15 28" fill="none" xmlns="http://www.w3.org/2000/svg">
<path d="M8.43762 27.5367L14.0264 22.0152C14.5693 21.4473 14.5693 20.5323 13.9945 19.996C13.4196 19.4596 12.5254 19.4596 11.9825 19.996L8.88473 23.0564L8.88473 1.42005C8.88473 0.631268 8.21407 0.000243869 7.41567 0.000243834C6.61727 0.000243799 5.97856 0.631268 5.97856 1.42005L5.97856 23.0564L2.88077 19.996C2.30592 19.4596 1.37978 19.4596 0.83687 20.0275C0.29396 20.5954 0.29396 21.4789 0.83687 22.0152L6.42566 27.5367C6.96857 28.1046 7.86278 28.1677 8.43762 27.6314C8.43762 27.5998 8.46956 27.5998 8.43762 27.5367Z" fill="white"/>
</svg>
