<svg width="1022" height="378" viewBox="0 0 1022 378" fill="none" xmlns="http://www.w3.org/2000/svg">
<path d="M25.8246 99.416L31.4047 116.59H49.4621L34.8534 127.204L40.4334 144.377L25.8246 133.763L11.2159 144.377L16.7959 127.204L2.18714 116.59H20.2446L25.8246 99.416Z" fill="#D9D9D9" fill-opacity="0.2"/>
<path d="M246.53 0.000244141L252.11 17.1739H270.167L255.558 27.7878L261.139 44.9614L246.53 34.3475L231.921 44.9614L237.501 27.7878L222.892 17.1739H240.95L246.53 0.000244141Z" fill="#D9D9D9" fill-opacity="0.2"/>
<path d="M444.366 74.562L449.946 91.7357H468.003L453.394 102.35L458.974 119.523L444.366 108.909L429.757 119.523L435.337 102.35L420.728 91.7357H438.786L444.366 74.562Z" fill="#D9D9D9" fill-opacity="0.2"/>
<path d="M606.409 149.124L611.989 166.298H630.046L615.437 176.912L621.017 194.085L606.409 183.471L591.8 194.085L597.38 176.912L582.771 166.298H600.829L606.409 149.124Z" fill="#D9D9D9" fill-opacity="0.2"/>
<path d="M901.676 74.562L907.256 91.7357H925.314L910.705 102.35L916.285 119.523L901.676 108.909L887.067 119.523L892.647 102.35L878.039 91.7357H896.096L901.676 74.562Z" fill="#D9D9D9" fill-opacity="0.2"/>
<path d="M704.834 328.073L710.414 345.246H728.472L713.863 355.86L719.443 373.034L704.834 362.42L690.226 373.034L695.806 355.86L681.197 345.246H699.254L704.834 328.073Z" fill="#D9D9D9" fill-opacity="0.2"/>
<path d="M997.118 247.545L1002.7 264.719H1020.76L1006.15 275.333L1011.73 292.507L997.118 281.893L982.509 292.507L988.089 275.333L973.48 264.719H991.538L997.118 247.545Z" fill="#D9D9D9" fill-opacity="0.2"/>
<path d="M54.6582 114.825L220.185 37.7781" stroke="white" stroke-opacity="0.2" stroke-width="1.98831"/>
<path d="M266.408 33.3047L411.058 90.4687" stroke="white" stroke-opacity="0.2" stroke-width="1.98831"/>
<path d="M467.23 108.364L571.12 170.995" stroke="white" stroke-opacity="0.2" stroke-width="1.98831"/>
<path d="M643.691 171.99L873.839 104.884" stroke="white" stroke-opacity="0.2" stroke-width="1.98831"/>
<path d="M916.59 131.726L983.198 248.54" stroke="white" stroke-opacity="0.2" stroke-width="1.98831"/>
<path d="M972.263 286.814L745.098 343.979" stroke="white" stroke-opacity="0.2" stroke-width="1.98831"/>
<path d="M620.826 202.808L690.914 320.119" stroke="white" stroke-opacity="0.2" stroke-width="1.98831"/>
</svg>
